# xmcd
#
# Track frame offsets: 
#        183
#        14228
#        32315
#        61058
#        81500
#        96375
#        109028
#        128825
#        160353
#        174928
#        187433
#        200228
#
# Disc length: 2872 seconds
#
# Revision: 2
# Processed by: cddbd v1.5.2PL0 Copyright (c) Steve Scherf et al.
# Submitted via: ExactAudioCopyFreeDBPlugin 1.0
#
DISCID=ab0b360c
DTITLE=Grant and Forsyth - Country Love Songs Vol.3
DYEAR=1992
DGENRE=Country
TTITLE0=Only A Fool
TTITLE1=All Out Of Love
TTITLE2=Medley
TTITLE3=House For Sale
TTITLE4=Till I Can Make It On My Own
TTITLE5=If I Were A Carpenter
TTITLE6=Do That To Me One More Time
TTITLE7=Medley
TTITLE8=Driving My Life Away
TTITLE9=Before The Next Teardrop Falls
TTITLE10=I Believe
TTITLE11=Treat Me Nice_Don't Be Cruel Im Leaving It All Up To You
EXTD=
EXTT0=
EXTT1=
EXTT2=
EXTT3=
EXTT4=
EXTT5=
EXTT6=
EXTT7=
EXTT8=
EXTT9=
EXTT10=
EXTT11=
PLAYORDER=
